<svg width="900" height="900" viewBox="0 0 900 900" xmlns="http://www.w3.org/2000/svg">
<rect width="900" height="900" rx="80" fill="none"/>
<ellipse cx="450" cy="805" rx="245" ry="36" fill="#000" opacity=".28"/>
<path d="M305 165 L380 110 H520 L595 165 L735 230 L675 375 L590 340 L590 720 Q590 765 545 765 H355 Q310 765 310 720 L310 340 L225 375 L165 230 Z" fill="#050505"/>
<path d="M380 110 Q450 180 520 110" fill="none" stroke="#1a1a1a" stroke-width="34" stroke-linecap="round"/>
<path d="M315 173 L210 235 L250 330 L310 303" fill="#0b0b0b"/>
<path d="M585 173 L690 235 L650 330 L590 303" fill="#0b0b0b"/>
<image href="oasis-logo.png" x="330" y="255" width="240" height="240" preserveAspectRatio="xMidYMid meet"/>
<text x="450" y="555" text-anchor="middle" font-size="58" font-family="Arial Black, Arial" fill="#9fffe0">OASIS</text>
</svg>