<svg width="420" height="620" viewBox="0 0 420 620" fill="none" xmlns="http://www.w3.org/2000/svg">
<g transform="translate(420 0) scale(-1 1)">
<path d="M217 229C203 337 197 475 204 620H153C162 487 166 349 178 226C190 216 205 216 217 229Z" fill="#6B3E20"/>
<path d="M190 230C167 309 159 419 162 620H122C129 470 136 330 164 221C174 216 184 219 190 230Z" fill="#8A552B"/>
<path d="M198 215C128 125 62 96 0 90C58 56 141 74 205 196L198 215Z" fill="#07996D"/>
<path d="M205 204C120 61 78 27 25 0C106 3 178 61 221 190L205 204Z" fill="#20C894"/>
<path d="M213 204C222 70 256 22 316 0C306 73 278 143 227 209L213 204Z" fill="#0FAE7C"/>
<path d="M219 214C294 112 362 91 420 105C350 128 309 175 232 229L219 214Z" fill="#17D19A"/>
<path d="M220 225C314 210 371 232 410 286C340 286 285 267 218 241L220 225Z" fill="#07996D"/>
<path d="M202 224C116 210 66 226 26 270C90 276 145 263 207 241L202 224Z" fill="#16C891"/>
</g>
</svg>